<svg xmlns="http://www.w3.org/2000/svg" xmlns:xlink="http://www.w3.org/1999/xlink" width="266" zoomAndPan="magnify" viewBox="0 0 266 73" height="73" preserveAspectRatio="xMidYMid meet" version="1.0"><defs><g/><clipPath id="af9374d49a"><path d="M 0.203125 0 L 198.796875 0 L 198.796875 54.5 L 0.203125 54.5 Z M 0.203125 0 " clip-rule="nonzero"/></clipPath><clipPath id="7ba174cf3c"><path d="M 93 22 L 109.3125 22 L 109.3125 27.917969 L 93 27.917969 Z M 93 22 " clip-rule="nonzero"/></clipPath><clipPath id="f8ec8802c9"><path d="M 89.851562 17.441406 L 106 17.441406 L 106 23 L 89.851562 23 Z M 89.851562 17.441406 " clip-rule="nonzero"/></clipPath></defs><g clip-path="url(#af9374d49a)"><path fill="#ffffff" d="M 0.203125 0 L 199.296875 0 L 199.296875 61.375 L 0.203125 61.375 Z M 0.203125 0 " fill-opacity="1" fill-rule="nonzero"/><path fill="#ffffff" d="M 0.203125 0 L 199.296875 0 L 199.296875 54.636719 L 0.203125 54.636719 Z M 0.203125 0 " fill-opacity="1" fill-rule="nonzero"/><path fill="#ffffff" d="M 0.203125 0 L 199.296875 0 L 199.296875 54.636719 L 0.203125 54.636719 Z M 0.203125 0 " fill-opacity="1" fill-rule="nonzero"/></g><g fill="#000000" fill-opacity="1"><g transform="translate(80.954885, 34.033502)"><g><path d="M 2.296875 -0.671875 L 0.8125 -0.671875 L 0.53125 0 L 0 0 L 1.3125 -2.96875 L 1.828125 -2.96875 L 3.125 0 L 2.59375 0 Z M 2.109375 -1.109375 L 1.546875 -2.4375 L 1 -1.109375 Z M 2.109375 -1.109375 "/></g></g></g><g fill="#000000" fill-opacity="1"><g transform="translate(84.290538, 34.033502)"><g><path d="M 2.40625 -2.515625 L 1.46875 -2.515625 L 1.46875 0 L 0.96875 0 L 0.96875 -2.515625 L 0.03125 -2.515625 L 0.03125 -2.96875 L 2.40625 -2.96875 Z M 2.40625 -2.515625 "/></g></g></g><g fill="#000000" fill-opacity="1"><g transform="translate(86.954005, 34.033502)"><g><path d="M 0.890625 -0.453125 L 2.171875 -0.453125 L 2.171875 0 L 0.390625 0 L 0.390625 -2.96875 L 0.890625 -2.96875 Z M 0.890625 -0.453125 "/></g></g></g><g fill="#000000" fill-opacity="1"><g transform="translate(89.427229, 34.033502)"><g><path d="M 2.296875 -0.671875 L 0.8125 -0.671875 L 0.53125 0 L 0 0 L 1.3125 -2.96875 L 1.828125 -2.96875 L 3.125 0 L 2.59375 0 Z M 2.109375 -1.109375 L 1.546875 -2.4375 L 1 -1.109375 Z M 2.109375 -1.109375 "/></g></g></g><g fill="#000000" fill-opacity="1"><g transform="translate(92.762882, 34.033502)"><g><path d="M 1.359375 -2.984375 C 1.742188 -2.984375 2.09375 -2.882812 2.40625 -2.6875 L 2.1875 -2.234375 C 1.882812 -2.421875 1.597656 -2.515625 1.328125 -2.515625 C 1.171875 -2.515625 1.050781 -2.488281 0.96875 -2.4375 C 0.882812 -2.382812 0.84375 -2.304688 0.84375 -2.203125 C 0.84375 -2.109375 0.878906 -2.023438 0.953125 -1.953125 C 1.035156 -1.878906 1.132812 -1.828125 1.25 -1.796875 C 1.375 -1.765625 1.503906 -1.722656 1.640625 -1.671875 C 1.773438 -1.628906 1.898438 -1.578125 2.015625 -1.515625 C 2.140625 -1.460938 2.238281 -1.378906 2.3125 -1.265625 C 2.394531 -1.148438 2.4375 -1.007812 2.4375 -0.84375 C 2.4375 -0.582031 2.332031 -0.375 2.125 -0.21875 C 1.914062 -0.0625 1.648438 0.015625 1.328125 0.015625 C 1.097656 0.015625 0.875 -0.0234375 0.65625 -0.109375 C 0.445312 -0.191406 0.265625 -0.304688 0.109375 -0.453125 L 0.328125 -0.890625 C 0.472656 -0.742188 0.632812 -0.632812 0.8125 -0.5625 C 1 -0.488281 1.171875 -0.453125 1.328125 -0.453125 C 1.503906 -0.453125 1.640625 -0.484375 1.734375 -0.546875 C 1.835938 -0.609375 1.890625 -0.695312 1.890625 -0.8125 C 1.890625 -0.914062 1.847656 -1 1.765625 -1.0625 C 1.679688 -1.132812 1.582031 -1.1875 1.46875 -1.21875 C 1.351562 -1.25 1.222656 -1.285156 1.078125 -1.328125 C 0.941406 -1.378906 0.8125 -1.429688 0.6875 -1.484375 C 0.570312 -1.535156 0.472656 -1.617188 0.390625 -1.734375 C 0.316406 -1.847656 0.28125 -1.988281 0.28125 -2.15625 C 0.28125 -2.40625 0.378906 -2.601562 0.578125 -2.75 C 0.773438 -2.90625 1.035156 -2.984375 1.359375 -2.984375 Z M 1.359375 -2.984375 "/></g></g></g><g fill="#000000" fill-opacity="1"><g transform="translate(95.608135, 34.033502)"><g/></g></g><g fill="#000000" fill-opacity="1"><g transform="translate(96.914545, 34.033502)"><g><path d="M 0.890625 0 L 0.390625 0 L 0.390625 -2.96875 L 0.890625 -2.96875 Z M 0.890625 0 "/></g></g></g><g fill="#000000" fill-opacity="1"><g transform="translate(98.406968, 34.033502)"><g><path d="M 2.953125 0 L 2.46875 0 L 0.890625 -2.125 L 0.890625 0 L 0.390625 0 L 0.390625 -2.96875 L 0.875 -2.96875 L 2.46875 -0.828125 L 2.46875 -2.96875 L 2.953125 -2.96875 Z M 2.953125 0 "/></g></g></g><g fill="#000000" fill-opacity="1"><g transform="translate(101.97091, 34.033502)"><g><path d="M 1.359375 -2.984375 C 1.742188 -2.984375 2.09375 -2.882812 2.40625 -2.6875 L 2.1875 -2.234375 C 1.882812 -2.421875 1.597656 -2.515625 1.328125 -2.515625 C 1.171875 -2.515625 1.050781 -2.488281 0.96875 -2.4375 C 0.882812 -2.382812 0.84375 -2.304688 0.84375 -2.203125 C 0.84375 -2.109375 0.878906 -2.023438 0.953125 -1.953125 C 1.035156 -1.878906 1.132812 -1.828125 1.25 -1.796875 C 1.375 -1.765625 1.503906 -1.722656 1.640625 -1.671875 C 1.773438 -1.628906 1.898438 -1.578125 2.015625 -1.515625 C 2.140625 -1.460938 2.238281 -1.378906 2.3125 -1.265625 C 2.394531 -1.148438 2.4375 -1.007812 2.4375 -0.84375 C 2.4375 -0.582031 2.332031 -0.375 2.125 -0.21875 C 1.914062 -0.0625 1.648438 0.015625 1.328125 0.015625 C 1.097656 0.015625 0.875 -0.0234375 0.65625 -0.109375 C 0.445312 -0.191406 0.265625 -0.304688 0.109375 -0.453125 L 0.328125 -0.890625 C 0.472656 -0.742188 0.632812 -0.632812 0.8125 -0.5625 C 1 -0.488281 1.171875 -0.453125 1.328125 -0.453125 C 1.503906 -0.453125 1.640625 -0.484375 1.734375 -0.546875 C 1.835938 -0.609375 1.890625 -0.695312 1.890625 -0.8125 C 1.890625 -0.914062 1.847656 -1 1.765625 -1.0625 C 1.679688 -1.132812 1.582031 -1.1875 1.46875 -1.21875 C 1.351562 -1.25 1.222656 -1.285156 1.078125 -1.328125 C 0.941406 -1.378906 0.8125 -1.429688 0.6875 -1.484375 C 0.570312 -1.535156 0.472656 -1.617188 0.390625 -1.734375 C 0.316406 -1.847656 0.28125 -1.988281 0.28125 -2.15625 C 0.28125 -2.40625 0.378906 -2.601562 0.578125 -2.75 C 0.773438 -2.90625 1.035156 -2.984375 1.359375 -2.984375 Z M 1.359375 -2.984375 "/></g></g></g><g fill="#000000" fill-opacity="1"><g transform="translate(104.816162, 34.033502)"><g><path d="M 0.890625 0 L 0.390625 0 L 0.390625 -2.96875 L 0.890625 -2.96875 Z M 0.890625 0 "/></g></g></g><g fill="#000000" fill-opacity="1"><g transform="translate(106.308585, 34.033502)"><g><path d="M 2.421875 -1.453125 L 2.859375 -1.453125 L 2.859375 -0.359375 C 2.703125 -0.242188 2.519531 -0.148438 2.3125 -0.078125 C 2.101562 -0.015625 1.898438 0.015625 1.703125 0.015625 C 1.265625 0.015625 0.894531 -0.125 0.59375 -0.40625 C 0.289062 -0.695312 0.140625 -1.050781 0.140625 -1.46875 C 0.140625 -1.894531 0.289062 -2.253906 0.59375 -2.546875 C 0.90625 -2.835938 1.285156 -2.984375 1.734375 -2.984375 C 1.941406 -2.984375 2.144531 -2.941406 2.34375 -2.859375 C 2.550781 -2.785156 2.726562 -2.6875 2.875 -2.5625 L 2.59375 -2.1875 C 2.34375 -2.414062 2.054688 -2.53125 1.734375 -2.53125 C 1.429688 -2.53125 1.175781 -2.425781 0.96875 -2.21875 C 0.757812 -2.019531 0.65625 -1.773438 0.65625 -1.484375 C 0.65625 -1.179688 0.757812 -0.925781 0.96875 -0.71875 C 1.175781 -0.519531 1.429688 -0.421875 1.734375 -0.421875 C 1.960938 -0.421875 2.191406 -0.488281 2.421875 -0.625 Z M 2.421875 -1.453125 "/></g></g></g><g fill="#000000" fill-opacity="1"><g transform="translate(109.690743, 34.033502)"><g><path d="M 2.953125 0 L 2.453125 0 L 2.453125 -1.234375 L 0.890625 -1.234375 L 0.890625 0 L 0.390625 0 L 0.390625 -2.96875 L 0.890625 -2.96875 L 0.890625 -1.671875 L 2.453125 -1.671875 L 2.453125 -2.96875 L 2.953125 -2.96875 Z M 2.953125 0 "/></g></g></g><g fill="#000000" fill-opacity="1"><g transform="translate(113.250459, 34.033502)"><g><path d="M 2.40625 -2.515625 L 1.46875 -2.515625 L 1.46875 0 L 0.96875 0 L 0.96875 -2.515625 L 0.03125 -2.515625 L 0.03125 -2.96875 L 2.40625 -2.96875 Z M 2.40625 -2.515625 "/></g></g></g><g fill="#000000" fill-opacity="1"><g transform="translate(115.913924, 34.033502)"><g><path d="M 1.359375 -2.984375 C 1.742188 -2.984375 2.09375 -2.882812 2.40625 -2.6875 L 2.1875 -2.234375 C 1.882812 -2.421875 1.597656 -2.515625 1.328125 -2.515625 C 1.171875 -2.515625 1.050781 -2.488281 0.96875 -2.4375 C 0.882812 -2.382812 0.84375 -2.304688 0.84375 -2.203125 C 0.84375 -2.109375 0.878906 -2.023438 0.953125 -1.953125 C 1.035156 -1.878906 1.132812 -1.828125 1.25 -1.796875 C 1.375 -1.765625 1.503906 -1.722656 1.640625 -1.671875 C 1.773438 -1.628906 1.898438 -1.578125 2.015625 -1.515625 C 2.140625 -1.460938 2.238281 -1.378906 2.3125 -1.265625 C 2.394531 -1.148438 2.4375 -1.007812 2.4375 -0.84375 C 2.4375 -0.582031 2.332031 -0.375 2.125 -0.21875 C 1.914062 -0.0625 1.648438 0.015625 1.328125 0.015625 C 1.097656 0.015625 0.875 -0.0234375 0.65625 -0.109375 C 0.445312 -0.191406 0.265625 -0.304688 0.109375 -0.453125 L 0.328125 -0.890625 C 0.472656 -0.742188 0.632812 -0.632812 0.8125 -0.5625 C 1 -0.488281 1.171875 -0.453125 1.328125 -0.453125 C 1.503906 -0.453125 1.640625 -0.484375 1.734375 -0.546875 C 1.835938 -0.609375 1.890625 -0.695312 1.890625 -0.8125 C 1.890625 -0.914062 1.847656 -1 1.765625 -1.0625 C 1.679688 -1.132812 1.582031 -1.1875 1.46875 -1.21875 C 1.351562 -1.25 1.222656 -1.285156 1.078125 -1.328125 C 0.941406 -1.378906 0.8125 -1.429688 0.6875 -1.484375 C 0.570312 -1.535156 0.472656 -1.617188 0.390625 -1.734375 C 0.316406 -1.847656 0.28125 -1.988281 0.28125 -2.15625 C 0.28125 -2.40625 0.378906 -2.601562 0.578125 -2.75 C 0.773438 -2.90625 1.035156 -2.984375 1.359375 -2.984375 Z M 1.359375 -2.984375 "/></g></g></g><g clip-path="url(#7ba174cf3c)"><path fill="#000000" d="M 99.378906 26.105469 C 97.050781 26.105469 94.949219 24.679688 93.453125 23.285156 C 94.6875 24.808594 97.632812 27.917969 101.070312 27.917969 C 105.621094 27.917969 109.308594 22.46875 109.308594 22.46875 L 106.128906 22.46875 C 104.636719 24.054688 102.171875 26.105469 99.378906 26.105469 " fill-opacity="1" fill-rule="nonzero"/></g><g clip-path="url(#f8ec8802c9)"><path fill="#000000" d="M 99.78125 19.25 C 102.109375 19.25 104.210938 20.675781 105.710938 22.070312 C 104.476562 20.546875 101.527344 17.4375 98.089844 17.4375 C 93.539062 17.4375 89.851562 22.886719 89.851562 22.886719 L 93.03125 22.886719 C 94.523438 21.300781 96.992188 19.25 99.78125 19.25 " fill-opacity="1" fill-rule="nonzero"/></g><path fill="#000000" d="M 100.625 20.296875 C 100.808594 20.46875 100.925781 20.714844 100.925781 20.988281 C 100.925781 21.503906 100.507812 21.921875 99.996094 21.921875 C 99.480469 21.921875 99.0625 21.503906 99.0625 20.988281 C 99.0625 20.46875 99.480469 20.050781 99.996094 20.050781 C 100.003906 20.050781 100.015625 20.050781 100.027344 20.054688 C 99.796875 19.988281 99.554688 19.957031 99.304688 19.957031 C 97.804688 19.957031 96.589844 21.175781 96.589844 22.679688 C 96.589844 24.183594 97.804688 25.40625 99.304688 25.40625 C 100.804688 25.40625 102.019531 24.183594 102.019531 22.679688 C 102.019531 21.65625 101.457031 20.761719 100.625 20.296875 " fill-opacity="1" fill-rule="nonzero"/><g fill="#000000" fill-opacity="1"><g transform="translate(90.120512, 36.768639)"><g><path d="M 0.3125 -1.09375 L 0.671875 -0.203125 L 1.03125 -1.09375 L 1.21875 -1.09375 L 1.21875 0 L 1.078125 0 L 1.078125 -0.421875 L 1.09375 -0.890625 L 0.734375 0 L 0.625 0 L 0.265625 -0.890625 L 0.265625 0 L 0.125 0 L 0.125 -1.09375 Z M 0.3125 -1.09375 "/></g></g></g><g fill="#000000" fill-opacity="1"><g transform="translate(91.835424, 36.768639)"><g><path d="M 0.734375 -0.28125 L 0.28125 -0.28125 L 0.171875 0 L 0.015625 0 L 0.4375 -1.09375 L 0.5625 -1.09375 L 0.984375 0 L 0.84375 0 Z M 0.3125 -0.40625 L 0.6875 -0.40625 L 0.5 -0.921875 Z M 0.3125 -0.40625 "/></g></g></g><g fill="#000000" fill-opacity="1"><g transform="translate(93.208171, 36.768639)"><g><path d="M 0.53125 -0.4375 L 0.265625 -0.4375 L 0.265625 0 L 0.125 0 L 0.125 -1.09375 L 0.484375 -1.09375 C 0.609375 -1.09375 0.703125 -1.066406 0.765625 -1.015625 C 0.835938 -0.960938 0.875 -0.878906 0.875 -0.765625 C 0.875 -0.703125 0.851562 -0.644531 0.8125 -0.59375 C 0.78125 -0.539062 0.734375 -0.5 0.671875 -0.46875 L 0.921875 -0.015625 L 0.921875 0 L 0.765625 0 Z M 0.265625 -0.5625 L 0.5 -0.5625 C 0.570312 -0.5625 0.628906 -0.578125 0.671875 -0.609375 C 0.710938 -0.648438 0.734375 -0.703125 0.734375 -0.765625 C 0.734375 -0.835938 0.710938 -0.890625 0.671875 -0.921875 C 0.628906 -0.960938 0.570312 -0.984375 0.5 -0.984375 L 0.265625 -0.984375 Z M 0.265625 -0.5625 "/></g></g></g><g fill="#000000" fill-opacity="1"><g transform="translate(94.524142, 36.768639)"><g><path d="M 0.40625 -0.515625 L 0.265625 -0.375 L 0.265625 0 L 0.125 0 L 0.125 -1.09375 L 0.265625 -1.09375 L 0.265625 -0.5625 L 0.765625 -1.09375 L 0.9375 -1.09375 L 0.5 -0.609375 L 0.96875 0 L 0.796875 0 Z M 0.40625 -0.515625 "/></g></g></g><g fill="#000000" fill-opacity="1"><g transform="translate(95.857524, 36.768639)"><g><path d="M 0.75 -0.515625 L 0.265625 -0.515625 L 0.265625 -0.125 L 0.828125 -0.125 L 0.828125 0 L 0.125 0 L 0.125 -1.09375 L 0.8125 -1.09375 L 0.8125 -0.984375 L 0.265625 -0.984375 L 0.265625 -0.625 L 0.75 -0.625 Z M 0.75 -0.515625 "/></g></g></g><g fill="#000000" fill-opacity="1"><g transform="translate(97.100066, 36.768639)"><g><path d="M 0.890625 -0.984375 L 0.53125 -0.984375 L 0.53125 0 L 0.390625 0 L 0.390625 -0.984375 L 0.03125 -0.984375 L 0.03125 -1.09375 L 0.890625 -1.09375 Z M 0.890625 -0.984375 "/></g></g></g><g fill="#000000" fill-opacity="1"><g transform="translate(98.386514, 36.768639)"><g/></g></g><g fill="#000000" fill-opacity="1"><g transform="translate(99.131703, 36.768639)"><g><path d="M 0.53125 -0.4375 L 0.265625 -0.4375 L 0.265625 0 L 0.125 0 L 0.125 -1.09375 L 0.484375 -1.09375 C 0.609375 -1.09375 0.703125 -1.066406 0.765625 -1.015625 C 0.835938 -0.960938 0.875 -0.878906 0.875 -0.765625 C 0.875 -0.703125 0.851562 -0.644531 0.8125 -0.59375 C 0.78125 -0.539062 0.734375 -0.5 0.671875 -0.46875 L 0.921875 -0.015625 L 0.921875 0 L 0.765625 0 Z M 0.265625 -0.5625 L 0.5 -0.5625 C 0.570312 -0.5625 0.628906 -0.578125 0.671875 -0.609375 C 0.710938 -0.648438 0.734375 -0.703125 0.734375 -0.765625 C 0.734375 -0.835938 0.710938 -0.890625 0.671875 -0.921875 C 0.628906 -0.960938 0.570312 -0.984375 0.5 -0.984375 L 0.265625 -0.984375 Z M 0.265625 -0.5625 "/></g></g></g><g fill="#000000" fill-opacity="1"><g transform="translate(100.447674, 36.768639)"><g><path d="M 0.75 -0.515625 L 0.265625 -0.515625 L 0.265625 -0.125 L 0.828125 -0.125 L 0.828125 0 L 0.125 0 L 0.125 -1.09375 L 0.8125 -1.09375 L 0.8125 -0.984375 L 0.265625 -0.984375 L 0.265625 -0.625 L 0.75 -0.625 Z M 0.75 -0.515625 "/></g></g></g><g fill="#000000" fill-opacity="1"><g transform="translate(101.690215, 36.768639)"><g><path d="M 0.453125 -0.484375 C 0.328125 -0.523438 0.234375 -0.570312 0.171875 -0.625 C 0.117188 -0.675781 0.09375 -0.738281 0.09375 -0.8125 C 0.09375 -0.894531 0.125 -0.960938 0.1875 -1.015625 C 0.257812 -1.078125 0.351562 -1.109375 0.46875 -1.109375 C 0.539062 -1.109375 0.609375 -1.09375 0.671875 -1.0625 C 0.734375 -1.039062 0.78125 -1.003906 0.8125 -0.953125 C 0.84375 -0.898438 0.859375 -0.84375 0.859375 -0.78125 L 0.71875 -0.78125 C 0.71875 -0.84375 0.691406 -0.894531 0.640625 -0.9375 C 0.597656 -0.976562 0.539062 -1 0.46875 -1 C 0.394531 -1 0.335938 -0.984375 0.296875 -0.953125 C 0.253906 -0.921875 0.234375 -0.875 0.234375 -0.8125 C 0.234375 -0.769531 0.253906 -0.734375 0.296875 -0.703125 C 0.335938 -0.671875 0.398438 -0.640625 0.484375 -0.609375 C 0.578125 -0.585938 0.648438 -0.5625 0.703125 -0.53125 C 0.753906 -0.5 0.789062 -0.460938 0.8125 -0.421875 C 0.84375 -0.378906 0.859375 -0.332031 0.859375 -0.28125 C 0.859375 -0.1875 0.820312 -0.113281 0.75 -0.0625 C 0.6875 -0.0078125 0.597656 0.015625 0.484375 0.015625 C 0.398438 0.015625 0.328125 0 0.265625 -0.03125 C 0.203125 -0.0625 0.148438 -0.0976562 0.109375 -0.140625 C 0.078125 -0.191406 0.0625 -0.25 0.0625 -0.3125 L 0.203125 -0.3125 C 0.203125 -0.25 0.226562 -0.195312 0.28125 -0.15625 C 0.332031 -0.125 0.398438 -0.109375 0.484375 -0.109375 C 0.554688 -0.109375 0.613281 -0.125 0.65625 -0.15625 C 0.695312 -0.1875 0.71875 -0.226562 0.71875 -0.28125 C 0.71875 -0.332031 0.695312 -0.375 0.65625 -0.40625 C 0.613281 -0.4375 0.546875 -0.460938 0.453125 -0.484375 Z M 0.453125 -0.484375 "/></g></g></g><g fill="#000000" fill-opacity="1"><g transform="translate(102.971364, 36.768639)"><g><path d="M 0.75 -0.515625 L 0.265625 -0.515625 L 0.265625 -0.125 L 0.828125 -0.125 L 0.828125 0 L 0.125 0 L 0.125 -1.09375 L 0.8125 -1.09375 L 0.8125 -0.984375 L 0.265625 -0.984375 L 0.265625 -0.625 L 0.75 -0.625 Z M 0.75 -0.515625 "/></g></g></g><g fill="#000000" fill-opacity="1"><g transform="translate(104.213905, 36.768639)"><g><path d="M 0.734375 -0.28125 L 0.28125 -0.28125 L 0.171875 0 L 0.015625 0 L 0.4375 -1.09375 L 0.5625 -1.09375 L 0.984375 0 L 0.84375 0 Z M 0.3125 -0.40625 L 0.6875 -0.40625 L 0.5 -0.921875 Z M 0.3125 -0.40625 "/></g></g></g><g fill="#000000" fill-opacity="1"><g transform="translate(105.586651, 36.768639)"><g><path d="M 0.53125 -0.4375 L 0.265625 -0.4375 L 0.265625 0 L 0.125 0 L 0.125 -1.09375 L 0.484375 -1.09375 C 0.609375 -1.09375 0.703125 -1.066406 0.765625 -1.015625 C 0.835938 -0.960938 0.875 -0.878906 0.875 -0.765625 C 0.875 -0.703125 0.851562 -0.644531 0.8125 -0.59375 C 0.78125 -0.539062 0.734375 -0.5 0.671875 -0.46875 L 0.921875 -0.015625 L 0.921875 0 L 0.765625 0 Z M 0.265625 -0.5625 L 0.5 -0.5625 C 0.570312 -0.5625 0.628906 -0.578125 0.671875 -0.609375 C 0.710938 -0.648438 0.734375 -0.703125 0.734375 -0.765625 C 0.734375 -0.835938 0.710938 -0.890625 0.671875 -0.921875 C 0.628906 -0.960938 0.570312 -0.984375 0.5 -0.984375 L 0.265625 -0.984375 Z M 0.265625 -0.5625 "/></g></g></g><g fill="#000000" fill-opacity="1"><g transform="translate(106.902622, 36.768639)"><g><path d="M 0.9375 -0.34375 C 0.925781 -0.226562 0.882812 -0.140625 0.8125 -0.078125 C 0.738281 -0.015625 0.640625 0.015625 0.515625 0.015625 C 0.390625 0.015625 0.285156 -0.03125 0.203125 -0.125 C 0.128906 -0.21875 0.09375 -0.34375 0.09375 -0.5 L 0.09375 -0.609375 C 0.09375 -0.703125 0.109375 -0.785156 0.140625 -0.859375 C 0.179688 -0.941406 0.234375 -1.003906 0.296875 -1.046875 C 0.367188 -1.085938 0.445312 -1.109375 0.53125 -1.109375 C 0.644531 -1.109375 0.738281 -1.078125 0.8125 -1.015625 C 0.882812 -0.953125 0.925781 -0.863281 0.9375 -0.75 L 0.796875 -0.75 C 0.773438 -0.832031 0.742188 -0.894531 0.703125 -0.9375 C 0.660156 -0.976562 0.601562 -1 0.53125 -1 C 0.4375 -1 0.363281 -0.960938 0.3125 -0.890625 C 0.257812 -0.828125 0.234375 -0.726562 0.234375 -0.59375 L 0.234375 -0.5 C 0.234375 -0.375 0.257812 -0.273438 0.3125 -0.203125 C 0.363281 -0.140625 0.429688 -0.109375 0.515625 -0.109375 C 0.597656 -0.109375 0.660156 -0.125 0.703125 -0.15625 C 0.742188 -0.195312 0.773438 -0.257812 0.796875 -0.34375 Z M 0.9375 -0.34375 "/></g></g></g><g fill="#000000" fill-opacity="1"><g transform="translate(108.273097, 36.768639)"><g><path d="M 0.96875 0 L 0.828125 0 L 0.828125 -0.515625 L 0.265625 -0.515625 L 0.265625 0 L 0.125 0 L 0.125 -1.09375 L 0.265625 -1.09375 L 0.265625 -0.625 L 0.828125 -0.625 L 0.828125 -1.09375 L 0.96875 -1.09375 Z M 0.96875 0 "/></g></g></g></svg>