<svg xmlns="http://www.w3.org/2000/svg" xmlns:xlink="http://www.w3.org/1999/xlink" width="266" zoomAndPan="magnify" viewBox="0 0 199.5 54.75" height="73" preserveAspectRatio="xMidYMid meet" version="1.0"><defs><g/><clipPath id="c4418a6290"><path d="M 0.203125 0 L 198.796875 0 L 198.796875 54.5 L 0.203125 54.5 Z M 0.203125 0 " clip-rule="nonzero"/></clipPath></defs><g clip-path="url(#c4418a6290)"><path fill="#ffffff" d="M 0.203125 0 L 199.296875 0 L 199.296875 61.375 L 0.203125 61.375 Z M 0.203125 0 " fill-opacity="1" fill-rule="nonzero"/><path fill="#ffffff" d="M 0.203125 0 L 199.296875 0 L 199.296875 54.636719 L 0.203125 54.636719 Z M 0.203125 0 " fill-opacity="1" fill-rule="nonzero"/><path fill="#ffffff" d="M 0.203125 0 L 199.296875 0 L 199.296875 54.636719 L 0.203125 54.636719 Z M 0.203125 0 " fill-opacity="1" fill-rule="nonzero"/></g><g fill="#6d6e71" fill-opacity="1"><g transform="translate(82.102223, 27.481129)"><g><path d="M 2.203125 -0.328125 C 2.265625 -0.160156 2.351562 -0.078125 2.46875 -0.078125 L 2.46875 0 C 2.363281 -0.0078125 2.222656 -0.015625 2.046875 -0.015625 C 1.828125 -0.015625 1.660156 -0.0078125 1.546875 0 L 1.546875 -0.078125 C 1.648438 -0.078125 1.722656 -0.0859375 1.765625 -0.109375 C 1.804688 -0.128906 1.828125 -0.164062 1.828125 -0.21875 C 1.828125 -0.257812 1.8125 -0.320312 1.78125 -0.40625 L 1.546875 -1.03125 L 0.609375 -1.03125 L 0.453125 -0.625 C 0.398438 -0.488281 0.375 -0.382812 0.375 -0.3125 C 0.375 -0.226562 0.398438 -0.164062 0.453125 -0.125 C 0.503906 -0.09375 0.585938 -0.078125 0.703125 -0.078125 L 0.703125 0 C 0.554688 -0.0078125 0.410156 -0.015625 0.265625 -0.015625 C 0.148438 -0.015625 0.0507812 -0.0078125 -0.03125 0 L -0.03125 -0.078125 C 0.101562 -0.109375 0.207031 -0.222656 0.28125 -0.421875 L 1.1875 -2.765625 L 1.25 -2.765625 Z M 1.515625 -1.109375 L 1.078125 -2.28125 L 0.640625 -1.109375 Z M 1.515625 -1.109375 "/></g></g></g><g fill="#6d6e71" fill-opacity="1"><g transform="translate(84.932655, 27.481129)"><g><path d="M 2.296875 -2.75 C 2.273438 -2.5625 2.265625 -2.394531 2.265625 -2.25 C 2.265625 -2.113281 2.269531 -2.007812 2.28125 -1.9375 L 2.1875 -1.9375 C 2.164062 -2.132812 2.140625 -2.28125 2.109375 -2.375 C 2.078125 -2.46875 2.019531 -2.535156 1.9375 -2.578125 C 1.863281 -2.628906 1.75 -2.65625 1.59375 -2.65625 L 1.390625 -2.65625 L 1.390625 -0.453125 C 1.390625 -0.335938 1.398438 -0.253906 1.421875 -0.203125 C 1.441406 -0.160156 1.472656 -0.128906 1.515625 -0.109375 C 1.566406 -0.0859375 1.65625 -0.078125 1.78125 -0.078125 L 1.78125 0 C 1.644531 -0.0078125 1.453125 -0.015625 1.203125 -0.015625 C 0.941406 -0.015625 0.75 -0.0078125 0.625 0 L 0.625 -0.078125 C 0.75 -0.078125 0.835938 -0.0859375 0.890625 -0.109375 C 0.941406 -0.128906 0.972656 -0.160156 0.984375 -0.203125 C 1.003906 -0.253906 1.015625 -0.335938 1.015625 -0.453125 L 1.015625 -2.65625 L 0.8125 -2.65625 C 0.65625 -2.65625 0.535156 -2.628906 0.453125 -2.578125 C 0.378906 -2.535156 0.328125 -2.46875 0.296875 -2.375 C 0.265625 -2.28125 0.238281 -2.132812 0.21875 -1.9375 L 0.125 -1.9375 C 0.132812 -2.007812 0.140625 -2.113281 0.140625 -2.25 C 0.140625 -2.394531 0.128906 -2.5625 0.109375 -2.75 C 0.328125 -2.738281 0.691406 -2.734375 1.203125 -2.734375 C 1.710938 -2.734375 2.078125 -2.738281 2.296875 -2.75 Z M 2.296875 -2.75 "/></g></g></g><g fill="#6d6e71" fill-opacity="1"><g transform="translate(87.728193, 27.481129)"><g><path d="M 1.15625 -2.671875 C 1.0625 -2.660156 0.992188 -2.644531 0.953125 -2.625 C 0.910156 -2.613281 0.878906 -2.585938 0.859375 -2.546875 C 0.847656 -2.503906 0.84375 -2.429688 0.84375 -2.328125 L 0.84375 -0.40625 C 0.84375 -0.3125 0.847656 -0.238281 0.859375 -0.1875 C 0.878906 -0.144531 0.910156 -0.117188 0.953125 -0.109375 C 0.992188 -0.0976562 1.0625 -0.09375 1.15625 -0.09375 L 1.4375 -0.09375 C 1.59375 -0.09375 1.710938 -0.113281 1.796875 -0.15625 C 1.878906 -0.195312 1.941406 -0.269531 1.984375 -0.375 C 2.023438 -0.476562 2.050781 -0.625 2.0625 -0.8125 L 2.15625 -0.8125 C 2.144531 -0.726562 2.140625 -0.625 2.140625 -0.5 C 2.140625 -0.351562 2.148438 -0.1875 2.171875 0 C 1.992188 -0.0078125 1.695312 -0.015625 1.28125 -0.015625 C 0.789062 -0.015625 0.414062 -0.0078125 0.15625 0 L 0.15625 -0.078125 C 0.25 -0.078125 0.316406 -0.0820312 0.359375 -0.09375 C 0.410156 -0.113281 0.441406 -0.144531 0.453125 -0.1875 C 0.472656 -0.238281 0.484375 -0.3125 0.484375 -0.40625 L 0.484375 -2.328125 C 0.484375 -2.429688 0.472656 -2.503906 0.453125 -2.546875 C 0.441406 -2.585938 0.410156 -2.613281 0.359375 -2.625 C 0.316406 -2.644531 0.25 -2.660156 0.15625 -2.671875 L 0.15625 -2.75 C 0.269531 -2.738281 0.4375 -2.734375 0.65625 -2.734375 C 0.863281 -2.734375 1.03125 -2.738281 1.15625 -2.75 Z M 1.15625 -2.671875 "/></g></g></g><g fill="#6d6e71" fill-opacity="1"><g transform="translate(90.395786, 27.481129)"><g><path d="M 2.203125 -0.328125 C 2.265625 -0.160156 2.351562 -0.078125 2.46875 -0.078125 L 2.46875 0 C 2.363281 -0.0078125 2.222656 -0.015625 2.046875 -0.015625 C 1.828125 -0.015625 1.660156 -0.0078125 1.546875 0 L 1.546875 -0.078125 C 1.648438 -0.078125 1.722656 -0.0859375 1.765625 -0.109375 C 1.804688 -0.128906 1.828125 -0.164062 1.828125 -0.21875 C 1.828125 -0.257812 1.8125 -0.320312 1.78125 -0.40625 L 1.546875 -1.03125 L 0.609375 -1.03125 L 0.453125 -0.625 C 0.398438 -0.488281 0.375 -0.382812 0.375 -0.3125 C 0.375 -0.226562 0.398438 -0.164062 0.453125 -0.125 C 0.503906 -0.09375 0.585938 -0.078125 0.703125 -0.078125 L 0.703125 0 C 0.554688 -0.0078125 0.410156 -0.015625 0.265625 -0.015625 C 0.148438 -0.015625 0.0507812 -0.0078125 -0.03125 0 L -0.03125 -0.078125 C 0.101562 -0.109375 0.207031 -0.222656 0.28125 -0.421875 L 1.1875 -2.765625 L 1.25 -2.765625 Z M 1.515625 -1.109375 L 1.078125 -2.28125 L 0.640625 -1.109375 Z M 1.515625 -1.109375 "/></g></g></g><g fill="#6d6e71" fill-opacity="1"><g transform="translate(93.226218, 27.481129)"><g><path d="M 0.984375 -2.78125 C 1.097656 -2.78125 1.1875 -2.769531 1.25 -2.75 C 1.320312 -2.726562 1.394531 -2.691406 1.46875 -2.640625 C 1.519531 -2.609375 1.5625 -2.59375 1.59375 -2.59375 C 1.613281 -2.59375 1.628906 -2.601562 1.640625 -2.625 C 1.660156 -2.65625 1.675781 -2.703125 1.6875 -2.765625 L 1.765625 -2.765625 C 1.753906 -2.609375 1.75 -2.34375 1.75 -1.96875 L 1.65625 -1.96875 C 1.644531 -2.175781 1.585938 -2.351562 1.484375 -2.5 C 1.378906 -2.644531 1.226562 -2.71875 1.03125 -2.71875 C 0.882812 -2.71875 0.765625 -2.671875 0.671875 -2.578125 C 0.585938 -2.492188 0.546875 -2.390625 0.546875 -2.265625 C 0.546875 -2.160156 0.566406 -2.070312 0.609375 -2 C 0.660156 -1.9375 0.722656 -1.878906 0.796875 -1.828125 C 0.867188 -1.773438 0.96875 -1.707031 1.09375 -1.625 L 1.203125 -1.546875 C 1.367188 -1.453125 1.5 -1.363281 1.59375 -1.28125 C 1.6875 -1.207031 1.757812 -1.117188 1.8125 -1.015625 C 1.875 -0.921875 1.90625 -0.8125 1.90625 -0.6875 C 1.90625 -0.445312 1.828125 -0.265625 1.671875 -0.140625 C 1.515625 -0.015625 1.316406 0.046875 1.078125 0.046875 C 0.953125 0.046875 0.847656 0.0351562 0.765625 0.015625 C 0.691406 -0.00390625 0.617188 -0.0390625 0.546875 -0.09375 C 0.492188 -0.125 0.453125 -0.140625 0.421875 -0.140625 C 0.398438 -0.140625 0.378906 -0.125 0.359375 -0.09375 C 0.347656 -0.0703125 0.335938 -0.03125 0.328125 0.03125 L 0.25 0.03125 C 0.257812 -0.113281 0.265625 -0.425781 0.265625 -0.90625 L 0.34375 -0.90625 C 0.363281 -0.644531 0.425781 -0.429688 0.53125 -0.265625 C 0.644531 -0.0976562 0.816406 -0.015625 1.046875 -0.015625 C 1.191406 -0.015625 1.3125 -0.0546875 1.40625 -0.140625 C 1.507812 -0.234375 1.5625 -0.363281 1.5625 -0.53125 C 1.5625 -0.675781 1.507812 -0.800781 1.40625 -0.90625 C 1.3125 -1.007812 1.160156 -1.125 0.953125 -1.25 C 0.796875 -1.34375 0.671875 -1.425781 0.578125 -1.5 C 0.484375 -1.570312 0.40625 -1.65625 0.34375 -1.75 C 0.289062 -1.851562 0.265625 -1.972656 0.265625 -2.109375 C 0.265625 -2.328125 0.332031 -2.492188 0.46875 -2.609375 C 0.613281 -2.722656 0.785156 -2.78125 0.984375 -2.78125 Z M 0.984375 -2.78125 "/></g></g></g><g fill="#6d6e71" fill-opacity="1"><g transform="translate(95.707711, 27.481129)"><g/></g></g><g fill="#6d6e71" fill-opacity="1"><g transform="translate(97.060968, 27.481129)"><g><path d="M 1.15625 -2.671875 C 1.0625 -2.660156 0.992188 -2.644531 0.953125 -2.625 C 0.910156 -2.613281 0.878906 -2.585938 0.859375 -2.546875 C 0.847656 -2.503906 0.84375 -2.429688 0.84375 -2.328125 L 0.84375 -0.40625 C 0.84375 -0.3125 0.847656 -0.238281 0.859375 -0.1875 C 0.878906 -0.144531 0.910156 -0.113281 0.953125 -0.09375 C 0.992188 -0.0820312 1.0625 -0.078125 1.15625 -0.078125 L 1.15625 0 C 1.03125 -0.0078125 0.863281 -0.015625 0.65625 -0.015625 C 0.4375 -0.015625 0.269531 -0.0078125 0.15625 0 L 0.15625 -0.078125 C 0.25 -0.078125 0.316406 -0.0820312 0.359375 -0.09375 C 0.410156 -0.113281 0.441406 -0.144531 0.453125 -0.1875 C 0.472656 -0.238281 0.484375 -0.3125 0.484375 -0.40625 L 0.484375 -2.328125 C 0.484375 -2.429688 0.472656 -2.503906 0.453125 -2.546875 C 0.441406 -2.585938 0.410156 -2.613281 0.359375 -2.625 C 0.316406 -2.644531 0.25 -2.660156 0.15625 -2.671875 L 0.15625 -2.75 C 0.269531 -2.738281 0.4375 -2.734375 0.65625 -2.734375 C 0.863281 -2.734375 1.03125 -2.738281 1.15625 -2.75 Z M 1.15625 -2.671875 "/></g></g></g><g fill="#6d6e71" fill-opacity="1"><g transform="translate(98.763166, 27.481129)"><g><path d="M 2.59375 -2.671875 C 2.5 -2.660156 2.429688 -2.644531 2.390625 -2.625 C 2.347656 -2.601562 2.316406 -2.566406 2.296875 -2.515625 C 2.285156 -2.460938 2.28125 -2.390625 2.28125 -2.296875 L 2.28125 0.015625 L 2.1875 0.015625 L 0.5625 -2.5 L 0.5625 -0.453125 C 0.5625 -0.347656 0.566406 -0.269531 0.578125 -0.21875 C 0.597656 -0.175781 0.632812 -0.140625 0.6875 -0.109375 C 0.738281 -0.0859375 0.816406 -0.078125 0.921875 -0.078125 L 0.921875 0 C 0.828125 -0.0078125 0.691406 -0.015625 0.515625 -0.015625 C 0.367188 -0.015625 0.25 -0.0078125 0.15625 0 L 0.15625 -0.078125 C 0.25 -0.078125 0.316406 -0.0859375 0.359375 -0.109375 C 0.410156 -0.140625 0.441406 -0.175781 0.453125 -0.21875 C 0.472656 -0.269531 0.484375 -0.347656 0.484375 -0.453125 L 0.484375 -2.328125 C 0.484375 -2.429688 0.472656 -2.503906 0.453125 -2.546875 C 0.441406 -2.585938 0.410156 -2.613281 0.359375 -2.625 C 0.316406 -2.644531 0.25 -2.660156 0.15625 -2.671875 L 0.15625 -2.75 C 0.25 -2.738281 0.367188 -2.734375 0.515625 -2.734375 C 0.640625 -2.734375 0.742188 -2.738281 0.828125 -2.75 L 2.1875 -0.640625 L 2.1875 -2.296875 C 2.1875 -2.390625 2.175781 -2.460938 2.15625 -2.515625 C 2.144531 -2.566406 2.113281 -2.601562 2.0625 -2.625 C 2.019531 -2.644531 1.945312 -2.660156 1.84375 -2.671875 L 1.84375 -2.75 C 1.9375 -2.738281 2.066406 -2.734375 2.234375 -2.734375 C 2.390625 -2.734375 2.507812 -2.738281 2.59375 -2.75 Z M 2.59375 -2.671875 "/></g></g></g><g fill="#6d6e71" fill-opacity="1"><g transform="translate(101.888257, 27.481129)"><g><path d="M 0.984375 -2.78125 C 1.097656 -2.78125 1.1875 -2.769531 1.25 -2.75 C 1.320312 -2.726562 1.394531 -2.691406 1.46875 -2.640625 C 1.519531 -2.609375 1.5625 -2.59375 1.59375 -2.59375 C 1.613281 -2.59375 1.628906 -2.601562 1.640625 -2.625 C 1.660156 -2.65625 1.675781 -2.703125 1.6875 -2.765625 L 1.765625 -2.765625 C 1.753906 -2.609375 1.75 -2.34375 1.75 -1.96875 L 1.65625 -1.96875 C 1.644531 -2.175781 1.585938 -2.351562 1.484375 -2.5 C 1.378906 -2.644531 1.226562 -2.71875 1.03125 -2.71875 C 0.882812 -2.71875 0.765625 -2.671875 0.671875 -2.578125 C 0.585938 -2.492188 0.546875 -2.390625 0.546875 -2.265625 C 0.546875 -2.160156 0.566406 -2.070312 0.609375 -2 C 0.660156 -1.9375 0.722656 -1.878906 0.796875 -1.828125 C 0.867188 -1.773438 0.96875 -1.707031 1.09375 -1.625 L 1.203125 -1.546875 C 1.367188 -1.453125 1.5 -1.363281 1.59375 -1.28125 C 1.6875 -1.207031 1.757812 -1.117188 1.8125 -1.015625 C 1.875 -0.921875 1.90625 -0.8125 1.90625 -0.6875 C 1.90625 -0.445312 1.828125 -0.265625 1.671875 -0.140625 C 1.515625 -0.015625 1.316406 0.046875 1.078125 0.046875 C 0.953125 0.046875 0.847656 0.0351562 0.765625 0.015625 C 0.691406 -0.00390625 0.617188 -0.0390625 0.546875 -0.09375 C 0.492188 -0.125 0.453125 -0.140625 0.421875 -0.140625 C 0.398438 -0.140625 0.378906 -0.125 0.359375 -0.09375 C 0.347656 -0.0703125 0.335938 -0.03125 0.328125 0.03125 L 0.25 0.03125 C 0.257812 -0.113281 0.265625 -0.425781 0.265625 -0.90625 L 0.34375 -0.90625 C 0.363281 -0.644531 0.425781 -0.429688 0.53125 -0.265625 C 0.644531 -0.0976562 0.816406 -0.015625 1.046875 -0.015625 C 1.191406 -0.015625 1.3125 -0.0546875 1.40625 -0.140625 C 1.507812 -0.234375 1.5625 -0.363281 1.5625 -0.53125 C 1.5625 -0.675781 1.507812 -0.800781 1.40625 -0.90625 C 1.3125 -1.007812 1.160156 -1.125 0.953125 -1.25 C 0.796875 -1.34375 0.671875 -1.425781 0.578125 -1.5 C 0.484375 -1.570312 0.40625 -1.65625 0.34375 -1.75 C 0.289062 -1.851562 0.265625 -1.972656 0.265625 -2.109375 C 0.265625 -2.328125 0.332031 -2.492188 0.46875 -2.609375 C 0.613281 -2.722656 0.785156 -2.78125 0.984375 -2.78125 Z M 0.984375 -2.78125 "/></g></g></g><g fill="#6d6e71" fill-opacity="1"><g transform="translate(104.369751, 27.481129)"><g><path d="M 1.15625 -2.671875 C 1.0625 -2.660156 0.992188 -2.644531 0.953125 -2.625 C 0.910156 -2.613281 0.878906 -2.585938 0.859375 -2.546875 C 0.847656 -2.503906 0.84375 -2.429688 0.84375 -2.328125 L 0.84375 -0.40625 C 0.84375 -0.3125 0.847656 -0.238281 0.859375 -0.1875 C 0.878906 -0.144531 0.910156 -0.113281 0.953125 -0.09375 C 0.992188 -0.0820312 1.0625 -0.078125 1.15625 -0.078125 L 1.15625 0 C 1.03125 -0.0078125 0.863281 -0.015625 0.65625 -0.015625 C 0.4375 -0.015625 0.269531 -0.0078125 0.15625 0 L 0.15625 -0.078125 C 0.25 -0.078125 0.316406 -0.0820312 0.359375 -0.09375 C 0.410156 -0.113281 0.441406 -0.144531 0.453125 -0.1875 C 0.472656 -0.238281 0.484375 -0.3125 0.484375 -0.40625 L 0.484375 -2.328125 C 0.484375 -2.429688 0.472656 -2.503906 0.453125 -2.546875 C 0.441406 -2.585938 0.410156 -2.613281 0.359375 -2.625 C 0.316406 -2.644531 0.25 -2.660156 0.15625 -2.671875 L 0.15625 -2.75 C 0.269531 -2.738281 0.4375 -2.734375 0.65625 -2.734375 C 0.863281 -2.734375 1.03125 -2.738281 1.15625 -2.75 Z M 1.15625 -2.671875 "/></g></g></g><g fill="#6d6e71" fill-opacity="1"><g transform="translate(106.071949, 27.481129)"><g><path d="M 1.453125 -2.796875 C 1.609375 -2.796875 1.734375 -2.773438 1.828125 -2.734375 C 1.929688 -2.691406 2.039062 -2.628906 2.15625 -2.546875 C 2.1875 -2.515625 2.210938 -2.5 2.234375 -2.5 C 2.285156 -2.5 2.316406 -2.582031 2.328125 -2.75 L 2.421875 -2.75 C 2.410156 -2.570312 2.40625 -2.273438 2.40625 -1.859375 L 2.3125 -1.859375 C 2.289062 -1.992188 2.265625 -2.101562 2.234375 -2.1875 C 2.210938 -2.28125 2.175781 -2.359375 2.125 -2.421875 C 2.039062 -2.515625 1.9375 -2.585938 1.8125 -2.640625 C 1.695312 -2.703125 1.578125 -2.734375 1.453125 -2.734375 C 1.273438 -2.734375 1.125 -2.675781 1 -2.5625 C 0.875 -2.445312 0.773438 -2.285156 0.703125 -2.078125 C 0.628906 -1.878906 0.59375 -1.644531 0.59375 -1.375 C 0.59375 -0.90625 0.664062 -0.5625 0.8125 -0.34375 C 0.96875 -0.125 1.203125 -0.015625 1.515625 -0.015625 C 1.671875 -0.015625 1.804688 -0.0546875 1.921875 -0.140625 C 1.960938 -0.171875 1.988281 -0.203125 2 -0.234375 C 2.019531 -0.265625 2.03125 -0.304688 2.03125 -0.359375 L 2.03125 -0.734375 C 2.03125 -0.835938 2.019531 -0.910156 2 -0.953125 C 1.976562 -1.003906 1.941406 -1.039062 1.890625 -1.0625 C 1.835938 -1.082031 1.753906 -1.09375 1.640625 -1.09375 L 1.640625 -1.171875 C 1.773438 -1.171875 1.957031 -1.171875 2.1875 -1.171875 C 2.363281 -1.171875 2.5 -1.171875 2.59375 -1.171875 L 2.59375 -1.09375 C 2.53125 -1.09375 2.484375 -1.082031 2.453125 -1.0625 C 2.429688 -1.050781 2.414062 -1.023438 2.40625 -0.984375 C 2.394531 -0.941406 2.390625 -0.867188 2.390625 -0.765625 L 2.390625 0 L 2.3125 0 C 2.3125 -0.0507812 2.300781 -0.0976562 2.28125 -0.140625 C 2.269531 -0.191406 2.25 -0.21875 2.21875 -0.21875 C 2.195312 -0.21875 2.175781 -0.210938 2.15625 -0.203125 C 2.144531 -0.203125 2.117188 -0.1875 2.078125 -0.15625 C 1.992188 -0.0820312 1.898438 -0.03125 1.796875 0 C 1.703125 0.03125 1.597656 0.046875 1.484375 0.046875 C 1.210938 0.046875 0.984375 -0.00390625 0.796875 -0.109375 C 0.609375 -0.222656 0.460938 -0.378906 0.359375 -0.578125 C 0.253906 -0.785156 0.203125 -1.035156 0.203125 -1.328125 C 0.203125 -1.617188 0.253906 -1.875 0.359375 -2.09375 C 0.472656 -2.320312 0.625 -2.492188 0.8125 -2.609375 C 1 -2.734375 1.210938 -2.796875 1.453125 -2.796875 Z M 1.453125 -2.796875 "/></g></g></g><g fill="#6d6e71" fill-opacity="1"><g transform="translate(109.185409, 27.481129)"><g><path d="M 2.765625 -2.671875 C 2.671875 -2.660156 2.601562 -2.644531 2.5625 -2.625 C 2.519531 -2.613281 2.488281 -2.585938 2.46875 -2.546875 C 2.457031 -2.503906 2.453125 -2.429688 2.453125 -2.328125 L 2.453125 -0.40625 C 2.453125 -0.3125 2.457031 -0.238281 2.46875 -0.1875 C 2.488281 -0.144531 2.519531 -0.113281 2.5625 -0.09375 C 2.601562 -0.0820312 2.671875 -0.078125 2.765625 -0.078125 L 2.765625 0 C 2.660156 -0.0078125 2.5 -0.015625 2.28125 -0.015625 C 2.0625 -0.015625 1.894531 -0.0078125 1.78125 0 L 1.78125 -0.078125 C 1.875 -0.078125 1.941406 -0.0820312 1.984375 -0.09375 C 2.023438 -0.113281 2.050781 -0.144531 2.0625 -0.1875 C 2.082031 -0.238281 2.09375 -0.3125 2.09375 -0.40625 L 2.09375 -1.34375 L 0.84375 -1.34375 L 0.84375 -0.40625 C 0.84375 -0.3125 0.847656 -0.238281 0.859375 -0.1875 C 0.878906 -0.144531 0.910156 -0.113281 0.953125 -0.09375 C 0.992188 -0.0820312 1.0625 -0.078125 1.15625 -0.078125 L 1.15625 0 C 1.03125 -0.0078125 0.863281 -0.015625 0.65625 -0.015625 C 0.4375 -0.015625 0.269531 -0.0078125 0.15625 0 L 0.15625 -0.078125 C 0.25 -0.078125 0.316406 -0.0820312 0.359375 -0.09375 C 0.410156 -0.113281 0.441406 -0.144531 0.453125 -0.1875 C 0.472656 -0.238281 0.484375 -0.3125 0.484375 -0.40625 L 0.484375 -2.328125 C 0.484375 -2.429688 0.472656 -2.503906 0.453125 -2.546875 C 0.441406 -2.585938 0.410156 -2.613281 0.359375 -2.625 C 0.316406 -2.644531 0.25 -2.660156 0.15625 -2.671875 L 0.15625 -2.75 C 0.269531 -2.738281 0.4375 -2.734375 0.65625 -2.734375 C 0.863281 -2.734375 1.03125 -2.738281 1.15625 -2.75 L 1.15625 -2.671875 C 1.0625 -2.660156 0.992188 -2.644531 0.953125 -2.625 C 0.910156 -2.613281 0.878906 -2.585938 0.859375 -2.546875 C 0.847656 -2.503906 0.84375 -2.429688 0.84375 -2.328125 L 0.84375 -1.421875 L 2.09375 -1.421875 L 2.09375 -2.328125 C 2.09375 -2.429688 2.082031 -2.503906 2.0625 -2.546875 C 2.050781 -2.585938 2.023438 -2.613281 1.984375 -2.625 C 1.941406 -2.644531 1.875 -2.660156 1.78125 -2.671875 L 1.78125 -2.75 C 1.894531 -2.738281 2.0625 -2.734375 2.28125 -2.734375 C 2.5 -2.734375 2.660156 -2.738281 2.765625 -2.75 Z M 2.765625 -2.671875 "/></g></g></g><g fill="#6d6e71" fill-opacity="1"><g transform="translate(112.508234, 27.481129)"><g><path d="M 2.296875 -2.75 C 2.273438 -2.5625 2.265625 -2.394531 2.265625 -2.25 C 2.265625 -2.113281 2.269531 -2.007812 2.28125 -1.9375 L 2.1875 -1.9375 C 2.164062 -2.132812 2.140625 -2.28125 2.109375 -2.375 C 2.078125 -2.46875 2.019531 -2.535156 1.9375 -2.578125 C 1.863281 -2.628906 1.75 -2.65625 1.59375 -2.65625 L 1.390625 -2.65625 L 1.390625 -0.453125 C 1.390625 -0.335938 1.398438 -0.253906 1.421875 -0.203125 C 1.441406 -0.160156 1.472656 -0.128906 1.515625 -0.109375 C 1.566406 -0.0859375 1.65625 -0.078125 1.78125 -0.078125 L 1.78125 0 C 1.644531 -0.0078125 1.453125 -0.015625 1.203125 -0.015625 C 0.941406 -0.015625 0.75 -0.0078125 0.625 0 L 0.625 -0.078125 C 0.75 -0.078125 0.835938 -0.0859375 0.890625 -0.109375 C 0.941406 -0.128906 0.972656 -0.160156 0.984375 -0.203125 C 1.003906 -0.253906 1.015625 -0.335938 1.015625 -0.453125 L 1.015625 -2.65625 L 0.8125 -2.65625 C 0.65625 -2.65625 0.535156 -2.628906 0.453125 -2.578125 C 0.378906 -2.535156 0.328125 -2.46875 0.296875 -2.375 C 0.265625 -2.28125 0.238281 -2.132812 0.21875 -1.9375 L 0.125 -1.9375 C 0.132812 -2.007812 0.140625 -2.113281 0.140625 -2.25 C 0.140625 -2.394531 0.128906 -2.5625 0.109375 -2.75 C 0.328125 -2.738281 0.691406 -2.734375 1.203125 -2.734375 C 1.710938 -2.734375 2.078125 -2.738281 2.296875 -2.75 Z M 2.296875 -2.75 "/></g></g></g><g fill="#6d6e71" fill-opacity="1"><g transform="translate(115.303772, 27.481129)"><g><path d="M 0.984375 -2.78125 C 1.097656 -2.78125 1.1875 -2.769531 1.25 -2.75 C 1.320312 -2.726562 1.394531 -2.691406 1.46875 -2.640625 C 1.519531 -2.609375 1.5625 -2.59375 1.59375 -2.59375 C 1.613281 -2.59375 1.628906 -2.601562 1.640625 -2.625 C 1.660156 -2.65625 1.675781 -2.703125 1.6875 -2.765625 L 1.765625 -2.765625 C 1.753906 -2.609375 1.75 -2.34375 1.75 -1.96875 L 1.65625 -1.96875 C 1.644531 -2.175781 1.585938 -2.351562 1.484375 -2.5 C 1.378906 -2.644531 1.226562 -2.71875 1.03125 -2.71875 C 0.882812 -2.71875 0.765625 -2.671875 0.671875 -2.578125 C 0.585938 -2.492188 0.546875 -2.390625 0.546875 -2.265625 C 0.546875 -2.160156 0.566406 -2.070312 0.609375 -2 C 0.660156 -1.9375 0.722656 -1.878906 0.796875 -1.828125 C 0.867188 -1.773438 0.96875 -1.707031 1.09375 -1.625 L 1.203125 -1.546875 C 1.367188 -1.453125 1.5 -1.363281 1.59375 -1.28125 C 1.6875 -1.207031 1.757812 -1.117188 1.8125 -1.015625 C 1.875 -0.921875 1.90625 -0.8125 1.90625 -0.6875 C 1.90625 -0.445312 1.828125 -0.265625 1.671875 -0.140625 C 1.515625 -0.015625 1.316406 0.046875 1.078125 0.046875 C 0.953125 0.046875 0.847656 0.0351562 0.765625 0.015625 C 0.691406 -0.00390625 0.617188 -0.0390625 0.546875 -0.09375 C 0.492188 -0.125 0.453125 -0.140625 0.421875 -0.140625 C 0.398438 -0.140625 0.378906 -0.125 0.359375 -0.09375 C 0.347656 -0.0703125 0.335938 -0.03125 0.328125 0.03125 L 0.25 0.03125 C 0.257812 -0.113281 0.265625 -0.425781 0.265625 -0.90625 L 0.34375 -0.90625 C 0.363281 -0.644531 0.425781 -0.429688 0.53125 -0.265625 C 0.644531 -0.0976562 0.816406 -0.015625 1.046875 -0.015625 C 1.191406 -0.015625 1.3125 -0.0546875 1.40625 -0.140625 C 1.507812 -0.234375 1.5625 -0.363281 1.5625 -0.53125 C 1.5625 -0.675781 1.507812 -0.800781 1.40625 -0.90625 C 1.3125 -1.007812 1.160156 -1.125 0.953125 -1.25 C 0.796875 -1.34375 0.671875 -1.425781 0.578125 -1.5 C 0.484375 -1.570312 0.40625 -1.65625 0.34375 -1.75 C 0.289062 -1.851562 0.265625 -1.972656 0.265625 -2.109375 C 0.265625 -2.328125 0.332031 -2.492188 0.46875 -2.609375 C 0.613281 -2.722656 0.785156 -2.78125 0.984375 -2.78125 Z M 0.984375 -2.78125 "/></g></g></g><g fill="#6d6e71" fill-opacity="1"><g transform="translate(86.485503, 32.716707)"><g><path d="M 0.96875 -0.828125 L 0.96875 0 L 0.875 0 L 0.875 -0.609375 C 0.875 -0.617188 0.875 -0.628906 0.875 -0.640625 C 0.875 -0.648438 0.875 -0.65625 0.875 -0.65625 L 0.59375 -0.140625 C 0.582031 -0.128906 0.566406 -0.125 0.546875 -0.125 L 0.53125 -0.125 C 0.507812 -0.125 0.492188 -0.128906 0.484375 -0.140625 L 0.203125 -0.671875 C 0.203125 -0.648438 0.203125 -0.628906 0.203125 -0.609375 L 0.203125 0 L 0.109375 0 L 0.109375 -0.828125 L 0.1875 -0.828125 C 0.195312 -0.828125 0.203125 -0.828125 0.203125 -0.828125 C 0.210938 -0.828125 0.222656 -0.820312 0.234375 -0.8125 L 0.515625 -0.296875 C 0.515625 -0.285156 0.515625 -0.273438 0.515625 -0.265625 C 0.523438 -0.253906 0.535156 -0.242188 0.546875 -0.234375 C 0.546875 -0.242188 0.546875 -0.253906 0.546875 -0.265625 C 0.554688 -0.273438 0.5625 -0.285156 0.5625 -0.296875 L 0.84375 -0.8125 C 0.851562 -0.820312 0.859375 -0.828125 0.859375 -0.828125 C 0.867188 -0.828125 0.878906 -0.828125 0.890625 -0.828125 Z M 0.96875 -0.828125 "/></g></g></g><g fill="#6d6e71" fill-opacity="1"><g transform="translate(88.031335, 32.716707)"><g><path d="M 0.546875 -0.3125 L 0.421875 -0.640625 C 0.410156 -0.648438 0.398438 -0.660156 0.390625 -0.671875 C 0.390625 -0.691406 0.390625 -0.707031 0.390625 -0.71875 C 0.378906 -0.6875 0.367188 -0.660156 0.359375 -0.640625 L 0.234375 -0.3125 Z M 0.78125 0 L 0.6875 0 C 0.675781 0 0.664062 0 0.65625 0 C 0.65625 -0.0078125 0.65625 -0.0195312 0.65625 -0.03125 L 0.578125 -0.234375 L 0.203125 -0.234375 L 0.125 -0.03125 C 0.125 -0.0195312 0.117188 -0.0078125 0.109375 0 C 0.109375 0 0.101562 0 0.09375 0 L 0 0 L 0.328125 -0.828125 L 0.453125 -0.828125 Z M 0.78125 0 "/></g></g></g><g fill="#6d6e71" fill-opacity="1"><g transform="translate(89.284524, 32.716707)"><g><path d="M 0.328125 -0.421875 C 0.367188 -0.421875 0.398438 -0.425781 0.421875 -0.4375 C 0.441406 -0.445312 0.460938 -0.457031 0.484375 -0.46875 C 0.503906 -0.488281 0.515625 -0.503906 0.515625 -0.515625 C 0.523438 -0.535156 0.53125 -0.5625 0.53125 -0.59375 C 0.53125 -0.644531 0.515625 -0.679688 0.484375 -0.703125 C 0.453125 -0.722656 0.40625 -0.734375 0.34375 -0.734375 L 0.21875 -0.734375 L 0.21875 -0.421875 Z M 0.71875 0 L 0.625 0 C 0.601562 0 0.585938 -0.0078125 0.578125 -0.03125 L 0.359375 -0.3125 C 0.347656 -0.320312 0.335938 -0.328125 0.328125 -0.328125 C 0.328125 -0.335938 0.316406 -0.34375 0.296875 -0.34375 L 0.21875 -0.34375 L 0.21875 0 L 0.109375 0 L 0.109375 -0.828125 L 0.34375 -0.828125 C 0.394531 -0.828125 0.4375 -0.820312 0.46875 -0.8125 C 0.507812 -0.800781 0.539062 -0.785156 0.5625 -0.765625 C 0.59375 -0.742188 0.613281 -0.71875 0.625 -0.6875 C 0.632812 -0.664062 0.640625 -0.632812 0.640625 -0.59375 C 0.640625 -0.570312 0.632812 -0.546875 0.625 -0.515625 C 0.613281 -0.492188 0.597656 -0.472656 0.578125 -0.453125 C 0.566406 -0.429688 0.546875 -0.410156 0.515625 -0.390625 C 0.492188 -0.378906 0.46875 -0.367188 0.4375 -0.359375 C 0.445312 -0.359375 0.457031 -0.347656 0.46875 -0.328125 Z M 0.71875 0 "/></g></g></g><g fill="#6d6e71" fill-opacity="1"><g transform="translate(90.478951, 32.716707)"><g><path d="M 0.21875 -0.46875 L 0.265625 -0.46875 C 0.273438 -0.46875 0.285156 -0.46875 0.296875 -0.46875 C 0.304688 -0.46875 0.3125 -0.472656 0.3125 -0.484375 L 0.59375 -0.796875 C 0.601562 -0.804688 0.609375 -0.8125 0.609375 -0.8125 C 0.617188 -0.820312 0.632812 -0.828125 0.65625 -0.828125 L 0.75 -0.828125 L 0.421875 -0.46875 C 0.421875 -0.457031 0.414062 -0.445312 0.40625 -0.4375 C 0.394531 -0.4375 0.390625 -0.4375 0.390625 -0.4375 C 0.398438 -0.425781 0.40625 -0.414062 0.40625 -0.40625 C 0.414062 -0.40625 0.425781 -0.398438 0.4375 -0.390625 L 0.765625 0 L 0.671875 0 C 0.660156 0 0.648438 0 0.640625 0 C 0.640625 0 0.632812 0 0.625 0 C 0.625 -0.0078125 0.625 -0.015625 0.625 -0.015625 C 0.625 -0.015625 0.625 -0.0195312 0.625 -0.03125 L 0.328125 -0.359375 C 0.328125 -0.359375 0.320312 -0.359375 0.3125 -0.359375 C 0.300781 -0.367188 0.285156 -0.375 0.265625 -0.375 L 0.21875 -0.375 L 0.21875 0 L 0.109375 0 L 0.109375 -0.828125 L 0.21875 -0.828125 Z M 0.21875 -0.46875 "/></g></g></g><g fill="#6d6e71" fill-opacity="1"><g transform="translate(91.715268, 32.716707)"><g><path d="M 0.609375 -0.09375 L 0.609375 0 L 0.109375 0 L 0.109375 -0.828125 L 0.609375 -0.828125 L 0.609375 -0.734375 L 0.21875 -0.734375 L 0.21875 -0.46875 L 0.546875 -0.46875 L 0.546875 -0.375 L 0.21875 -0.375 L 0.21875 -0.09375 Z M 0.609375 -0.09375 "/></g></g></g><g fill="#6d6e71" fill-opacity="1"><g transform="translate(92.852679, 32.716707)"><g><path d="M 0.671875 -0.734375 L 0.390625 -0.734375 L 0.390625 0 L 0.28125 0 L 0.28125 -0.734375 L 0.015625 -0.734375 L 0.015625 -0.828125 L 0.671875 -0.828125 Z M 0.671875 -0.734375 "/></g></g></g><g fill="#6d6e71" fill-opacity="1"><g transform="translate(94.005217, 32.716707)"><g/></g></g><g fill="#6d6e71" fill-opacity="1"><g transform="translate(94.768532, 32.716707)"><g><path d="M 0.328125 -0.421875 C 0.367188 -0.421875 0.398438 -0.425781 0.421875 -0.4375 C 0.441406 -0.445312 0.460938 -0.457031 0.484375 -0.46875 C 0.503906 -0.488281 0.515625 -0.503906 0.515625 -0.515625 C 0.523438 -0.535156 0.53125 -0.5625 0.53125 -0.59375 C 0.53125 -0.644531 0.515625 -0.679688 0.484375 -0.703125 C 0.453125 -0.722656 0.40625 -0.734375 0.34375 -0.734375 L 0.21875 -0.734375 L 0.21875 -0.421875 Z M 0.71875 0 L 0.625 0 C 0.601562 0 0.585938 -0.0078125 0.578125 -0.03125 L 0.359375 -0.3125 C 0.347656 -0.320312 0.335938 -0.328125 0.328125 -0.328125 C 0.328125 -0.335938 0.316406 -0.34375 0.296875 -0.34375 L 0.21875 -0.34375 L 0.21875 0 L 0.109375 0 L 0.109375 -0.828125 L 0.34375 -0.828125 C 0.394531 -0.828125 0.4375 -0.820312 0.46875 -0.8125 C 0.507812 -0.800781 0.539062 -0.785156 0.5625 -0.765625 C 0.59375 -0.742188 0.613281 -0.71875 0.625 -0.6875 C 0.632812 -0.664062 0.640625 -0.632812 0.640625 -0.59375 C 0.640625 -0.570312 0.632812 -0.546875 0.625 -0.515625 C 0.613281 -0.492188 0.597656 -0.472656 0.578125 -0.453125 C 0.566406 -0.429688 0.546875 -0.410156 0.515625 -0.390625 C 0.492188 -0.378906 0.46875 -0.367188 0.4375 -0.359375 C 0.445312 -0.359375 0.457031 -0.347656 0.46875 -0.328125 Z M 0.71875 0 "/></g></g></g><g fill="#6d6e71" fill-opacity="1"><g transform="translate(95.962959, 32.716707)"><g><path d="M 0.609375 -0.09375 L 0.609375 0 L 0.109375 0 L 0.109375 -0.828125 L 0.609375 -0.828125 L 0.609375 -0.734375 L 0.21875 -0.734375 L 0.21875 -0.46875 L 0.546875 -0.46875 L 0.546875 -0.375 L 0.21875 -0.375 L 0.21875 -0.09375 Z M 0.609375 -0.09375 "/></g></g></g><g fill="#6d6e71" fill-opacity="1"><g transform="translate(97.100371, 32.716707)"><g><path d="M 0.53125 -0.703125 C 0.53125 -0.691406 0.523438 -0.6875 0.515625 -0.6875 C 0.515625 -0.6875 0.507812 -0.6875 0.5 -0.6875 C 0.5 -0.6875 0.492188 -0.6875 0.484375 -0.6875 C 0.472656 -0.695312 0.457031 -0.703125 0.4375 -0.703125 C 0.425781 -0.710938 0.410156 -0.722656 0.390625 -0.734375 C 0.378906 -0.742188 0.359375 -0.75 0.328125 -0.75 C 0.304688 -0.75 0.285156 -0.742188 0.265625 -0.734375 C 0.242188 -0.722656 0.226562 -0.710938 0.21875 -0.703125 C 0.207031 -0.691406 0.195312 -0.675781 0.1875 -0.65625 C 0.175781 -0.644531 0.171875 -0.628906 0.171875 -0.609375 C 0.171875 -0.585938 0.175781 -0.566406 0.1875 -0.546875 C 0.207031 -0.535156 0.222656 -0.523438 0.234375 -0.515625 C 0.253906 -0.503906 0.273438 -0.492188 0.296875 -0.484375 C 0.328125 -0.484375 0.351562 -0.476562 0.375 -0.46875 C 0.394531 -0.457031 0.414062 -0.445312 0.4375 -0.4375 C 0.46875 -0.425781 0.492188 -0.410156 0.515625 -0.390625 C 0.535156 -0.378906 0.550781 -0.359375 0.5625 -0.328125 C 0.570312 -0.304688 0.578125 -0.28125 0.578125 -0.25 C 0.578125 -0.21875 0.566406 -0.1875 0.546875 -0.15625 C 0.535156 -0.125 0.519531 -0.09375 0.5 -0.0625 C 0.476562 -0.0390625 0.445312 -0.0195312 0.40625 0 C 0.375 0.0078125 0.335938 0.015625 0.296875 0.015625 C 0.242188 0.015625 0.191406 0.00390625 0.140625 -0.015625 C 0.0976562 -0.0351562 0.0625 -0.0625 0.03125 -0.09375 L 0.078125 -0.15625 C 0.0859375 -0.164062 0.09375 -0.171875 0.09375 -0.171875 C 0.101562 -0.171875 0.109375 -0.164062 0.109375 -0.15625 C 0.117188 -0.15625 0.125 -0.148438 0.125 -0.140625 C 0.132812 -0.140625 0.144531 -0.132812 0.15625 -0.125 C 0.164062 -0.113281 0.175781 -0.101562 0.1875 -0.09375 C 0.207031 -0.09375 0.222656 -0.0859375 0.234375 -0.078125 C 0.253906 -0.078125 0.273438 -0.078125 0.296875 -0.078125 C 0.328125 -0.078125 0.351562 -0.0820312 0.375 -0.09375 C 0.394531 -0.101562 0.410156 -0.113281 0.421875 -0.125 C 0.441406 -0.132812 0.453125 -0.148438 0.453125 -0.171875 C 0.460938 -0.191406 0.46875 -0.210938 0.46875 -0.234375 C 0.46875 -0.253906 0.460938 -0.273438 0.453125 -0.296875 C 0.441406 -0.316406 0.425781 -0.332031 0.40625 -0.34375 C 0.382812 -0.351562 0.363281 -0.359375 0.34375 -0.359375 C 0.320312 -0.367188 0.296875 -0.378906 0.265625 -0.390625 C 0.242188 -0.398438 0.21875 -0.410156 0.1875 -0.421875 C 0.164062 -0.429688 0.144531 -0.441406 0.125 -0.453125 C 0.113281 -0.472656 0.101562 -0.492188 0.09375 -0.515625 C 0.0820312 -0.546875 0.078125 -0.578125 0.078125 -0.609375 C 0.078125 -0.640625 0.0820312 -0.664062 0.09375 -0.6875 C 0.101562 -0.71875 0.117188 -0.742188 0.140625 -0.765625 C 0.160156 -0.785156 0.1875 -0.800781 0.21875 -0.8125 C 0.25 -0.832031 0.285156 -0.84375 0.328125 -0.84375 C 0.378906 -0.84375 0.421875 -0.832031 0.453125 -0.8125 C 0.492188 -0.800781 0.53125 -0.78125 0.5625 -0.75 Z M 0.53125 -0.703125 "/></g></g></g><g fill="#6d6e71" fill-opacity="1"><g transform="translate(98.197056, 32.716707)"><g><path d="M 0.609375 -0.09375 L 0.609375 0 L 0.109375 0 L 0.109375 -0.828125 L 0.609375 -0.828125 L 0.609375 -0.734375 L 0.21875 -0.734375 L 0.21875 -0.46875 L 0.546875 -0.46875 L 0.546875 -0.375 L 0.21875 -0.375 L 0.21875 -0.09375 Z M 0.609375 -0.09375 "/></g></g></g><g fill="#6d6e71" fill-opacity="1"><g transform="translate(99.334468, 32.716707)"><g><path d="M 0.546875 -0.3125 L 0.421875 -0.640625 C 0.410156 -0.648438 0.398438 -0.660156 0.390625 -0.671875 C 0.390625 -0.691406 0.390625 -0.707031 0.390625 -0.71875 C 0.378906 -0.6875 0.367188 -0.660156 0.359375 -0.640625 L 0.234375 -0.3125 Z M 0.78125 0 L 0.6875 0 C 0.675781 0 0.664062 0 0.65625 0 C 0.65625 -0.0078125 0.65625 -0.0195312 0.65625 -0.03125 L 0.578125 -0.234375 L 0.203125 -0.234375 L 0.125 -0.03125 C 0.125 -0.0195312 0.117188 -0.0078125 0.109375 0 C 0.109375 0 0.101562 0 0.09375 0 L 0 0 L 0.328125 -0.828125 L 0.453125 -0.828125 Z M 0.78125 0 "/></g></g></g><g fill="#6d6e71" fill-opacity="1"><g transform="translate(100.587657, 32.716707)"><g><path d="M 0.328125 -0.421875 C 0.367188 -0.421875 0.398438 -0.425781 0.421875 -0.4375 C 0.441406 -0.445312 0.460938 -0.457031 0.484375 -0.46875 C 0.503906 -0.488281 0.515625 -0.503906 0.515625 -0.515625 C 0.523438 -0.535156 0.53125 -0.5625 0.53125 -0.59375 C 0.53125 -0.644531 0.515625 -0.679688 0.484375 -0.703125 C 0.453125 -0.722656 0.40625 -0.734375 0.34375 -0.734375 L 0.21875 -0.734375 L 0.21875 -0.421875 Z M 0.71875 0 L 0.625 0 C 0.601562 0 0.585938 -0.0078125 0.578125 -0.03125 L 0.359375 -0.3125 C 0.347656 -0.320312 0.335938 -0.328125 0.328125 -0.328125 C 0.328125 -0.335938 0.316406 -0.34375 0.296875 -0.34375 L 0.21875 -0.34375 L 0.21875 0 L 0.109375 0 L 0.109375 -0.828125 L 0.34375 -0.828125 C 0.394531 -0.828125 0.4375 -0.820312 0.46875 -0.8125 C 0.507812 -0.800781 0.539062 -0.785156 0.5625 -0.765625 C 0.59375 -0.742188 0.613281 -0.71875 0.625 -0.6875 C 0.632812 -0.664062 0.640625 -0.632812 0.640625 -0.59375 C 0.640625 -0.570312 0.632812 -0.546875 0.625 -0.515625 C 0.613281 -0.492188 0.597656 -0.472656 0.578125 -0.453125 C 0.566406 -0.429688 0.546875 -0.410156 0.515625 -0.390625 C 0.492188 -0.378906 0.46875 -0.367188 0.4375 -0.359375 C 0.445312 -0.359375 0.457031 -0.347656 0.46875 -0.328125 Z M 0.71875 0 "/></g></g></g><g fill="#6d6e71" fill-opacity="1"><g transform="translate(101.782084, 32.716707)"><g><path d="M 0.6875 -0.171875 C 0.695312 -0.171875 0.703125 -0.164062 0.703125 -0.15625 L 0.75 -0.109375 C 0.71875 -0.078125 0.675781 -0.046875 0.625 -0.015625 C 0.570312 0.00390625 0.515625 0.015625 0.453125 0.015625 C 0.390625 0.015625 0.332031 0.00390625 0.28125 -0.015625 C 0.238281 -0.0351562 0.195312 -0.0664062 0.15625 -0.109375 C 0.125 -0.148438 0.0976562 -0.191406 0.078125 -0.234375 C 0.0664062 -0.285156 0.0625 -0.34375 0.0625 -0.40625 C 0.0625 -0.46875 0.0664062 -0.523438 0.078125 -0.578125 C 0.0976562 -0.628906 0.125 -0.675781 0.15625 -0.71875 C 0.195312 -0.757812 0.242188 -0.789062 0.296875 -0.8125 C 0.347656 -0.832031 0.398438 -0.84375 0.453125 -0.84375 C 0.515625 -0.84375 0.566406 -0.832031 0.609375 -0.8125 C 0.660156 -0.789062 0.703125 -0.765625 0.734375 -0.734375 L 0.703125 -0.6875 C 0.691406 -0.675781 0.6875 -0.671875 0.6875 -0.671875 C 0.6875 -0.671875 0.679688 -0.671875 0.671875 -0.671875 C 0.671875 -0.671875 0.664062 -0.671875 0.65625 -0.671875 C 0.644531 -0.679688 0.628906 -0.691406 0.609375 -0.703125 C 0.585938 -0.710938 0.566406 -0.71875 0.546875 -0.71875 C 0.523438 -0.726562 0.492188 -0.734375 0.453125 -0.734375 C 0.410156 -0.734375 0.375 -0.726562 0.34375 -0.71875 C 0.3125 -0.707031 0.28125 -0.6875 0.25 -0.65625 C 0.226562 -0.625 0.207031 -0.585938 0.1875 -0.546875 C 0.175781 -0.503906 0.171875 -0.457031 0.171875 -0.40625 C 0.171875 -0.363281 0.175781 -0.320312 0.1875 -0.28125 C 0.207031 -0.238281 0.226562 -0.203125 0.25 -0.171875 C 0.28125 -0.140625 0.3125 -0.117188 0.34375 -0.109375 C 0.375 -0.0976562 0.410156 -0.09375 0.453125 -0.09375 C 0.484375 -0.09375 0.503906 -0.09375 0.515625 -0.09375 C 0.535156 -0.09375 0.554688 -0.09375 0.578125 -0.09375 C 0.597656 -0.101562 0.613281 -0.113281 0.625 -0.125 C 0.632812 -0.132812 0.648438 -0.144531 0.671875 -0.15625 C 0.671875 -0.164062 0.675781 -0.171875 0.6875 -0.171875 Z M 0.6875 -0.171875 "/></g></g></g><g fill="#6d6e71" fill-opacity="1"><g transform="translate(103.0248, 32.716707)"><g><path d="M 0.78125 -0.828125 L 0.78125 0 L 0.671875 0 L 0.671875 -0.375 L 0.21875 -0.375 L 0.21875 0 L 0.109375 0 L 0.109375 -0.828125 L 0.21875 -0.828125 L 0.21875 -0.453125 L 0.671875 -0.453125 L 0.671875 -0.828125 Z M 0.78125 -0.828125 "/></g></g></g><g fill="#6d6e71" fill-opacity="1"><g transform="translate(104.37864, 32.716707)"><g/></g></g><g fill="#6d6e71" fill-opacity="1"><g transform="translate(105.141956, 32.716707)"><g><path d="M 0.328125 -0.421875 C 0.367188 -0.421875 0.398438 -0.425781 0.421875 -0.4375 C 0.441406 -0.445312 0.460938 -0.457031 0.484375 -0.46875 C 0.503906 -0.488281 0.515625 -0.503906 0.515625 -0.515625 C 0.523438 -0.535156 0.53125 -0.5625 0.53125 -0.59375 C 0.53125 -0.644531 0.515625 -0.679688 0.484375 -0.703125 C 0.453125 -0.722656 0.40625 -0.734375 0.34375 -0.734375 L 0.21875 -0.734375 L 0.21875 -0.421875 Z M 0.71875 0 L 0.625 0 C 0.601562 0 0.585938 -0.0078125 0.578125 -0.03125 L 0.359375 -0.3125 C 0.347656 -0.320312 0.335938 -0.328125 0.328125 -0.328125 C 0.328125 -0.335938 0.316406 -0.34375 0.296875 -0.34375 L 0.21875 -0.34375 L 0.21875 0 L 0.109375 0 L 0.109375 -0.828125 L 0.34375 -0.828125 C 0.394531 -0.828125 0.4375 -0.820312 0.46875 -0.8125 C 0.507812 -0.800781 0.539062 -0.785156 0.5625 -0.765625 C 0.59375 -0.742188 0.613281 -0.71875 0.625 -0.6875 C 0.632812 -0.664062 0.640625 -0.632812 0.640625 -0.59375 C 0.640625 -0.570312 0.632812 -0.546875 0.625 -0.515625 C 0.613281 -0.492188 0.597656 -0.472656 0.578125 -0.453125 C 0.566406 -0.429688 0.546875 -0.410156 0.515625 -0.390625 C 0.492188 -0.378906 0.46875 -0.367188 0.4375 -0.359375 C 0.445312 -0.359375 0.457031 -0.347656 0.46875 -0.328125 Z M 0.71875 0 "/></g></g></g><g fill="#6d6e71" fill-opacity="1"><g transform="translate(106.336383, 32.716707)"><g><path d="M 0.609375 -0.09375 L 0.609375 0 L 0.109375 0 L 0.109375 -0.828125 L 0.609375 -0.828125 L 0.609375 -0.734375 L 0.21875 -0.734375 L 0.21875 -0.46875 L 0.546875 -0.46875 L 0.546875 -0.375 L 0.21875 -0.375 L 0.21875 -0.09375 Z M 0.609375 -0.09375 "/></g></g></g><g fill="#6d6e71" fill-opacity="1"><g transform="translate(107.473795, 32.716707)"><g><path d="M 0.34375 -0.40625 C 0.375 -0.40625 0.398438 -0.40625 0.421875 -0.40625 C 0.453125 -0.414062 0.472656 -0.425781 0.484375 -0.4375 C 0.503906 -0.457031 0.519531 -0.476562 0.53125 -0.5 C 0.539062 -0.519531 0.546875 -0.546875 0.546875 -0.578125 C 0.546875 -0.628906 0.53125 -0.664062 0.5 -0.6875 C 0.46875 -0.71875 0.414062 -0.734375 0.34375 -0.734375 L 0.21875 -0.734375 L 0.21875 -0.40625 Z M 0.34375 -0.828125 C 0.394531 -0.828125 0.441406 -0.820312 0.484375 -0.8125 C 0.523438 -0.800781 0.554688 -0.78125 0.578125 -0.75 C 0.609375 -0.726562 0.628906 -0.703125 0.640625 -0.671875 C 0.648438 -0.640625 0.65625 -0.609375 0.65625 -0.578125 C 0.65625 -0.535156 0.648438 -0.5 0.640625 -0.46875 C 0.628906 -0.4375 0.609375 -0.40625 0.578125 -0.375 C 0.554688 -0.351562 0.523438 -0.335938 0.484375 -0.328125 C 0.441406 -0.316406 0.394531 -0.3125 0.34375 -0.3125 L 0.21875 -0.3125 L 0.21875 0 L 0.109375 0 L 0.109375 -0.828125 Z M 0.34375 -0.828125 "/></g></g></g><g fill="#6d6e71" fill-opacity="1"><g transform="translate(108.637969, 32.716707)"><g><path d="M 0.875 -0.40625 C 0.875 -0.351562 0.863281 -0.300781 0.84375 -0.25 C 0.820312 -0.195312 0.789062 -0.148438 0.75 -0.109375 C 0.71875 -0.0664062 0.675781 -0.0351562 0.625 -0.015625 C 0.570312 0.00390625 0.519531 0.015625 0.46875 0.015625 C 0.40625 0.015625 0.347656 0.00390625 0.296875 -0.015625 C 0.242188 -0.0351562 0.195312 -0.0664062 0.15625 -0.109375 C 0.125 -0.148438 0.0976562 -0.195312 0.078125 -0.25 C 0.0546875 -0.300781 0.046875 -0.351562 0.046875 -0.40625 C 0.046875 -0.46875 0.0546875 -0.523438 0.078125 -0.578125 C 0.0976562 -0.628906 0.125 -0.675781 0.15625 -0.71875 C 0.195312 -0.757812 0.242188 -0.789062 0.296875 -0.8125 C 0.347656 -0.832031 0.40625 -0.84375 0.46875 -0.84375 C 0.519531 -0.84375 0.570312 -0.832031 0.625 -0.8125 C 0.675781 -0.789062 0.71875 -0.757812 0.75 -0.71875 C 0.789062 -0.675781 0.820312 -0.628906 0.84375 -0.578125 C 0.863281 -0.523438 0.875 -0.46875 0.875 -0.40625 Z M 0.75 -0.40625 C 0.75 -0.457031 0.742188 -0.503906 0.734375 -0.546875 C 0.722656 -0.585938 0.703125 -0.625 0.671875 -0.65625 C 0.648438 -0.6875 0.617188 -0.707031 0.578125 -0.71875 C 0.546875 -0.726562 0.507812 -0.734375 0.46875 -0.734375 C 0.414062 -0.734375 0.367188 -0.726562 0.328125 -0.71875 C 0.296875 -0.707031 0.265625 -0.6875 0.234375 -0.65625 C 0.210938 -0.625 0.195312 -0.585938 0.1875 -0.546875 C 0.175781 -0.503906 0.171875 -0.457031 0.171875 -0.40625 C 0.171875 -0.363281 0.175781 -0.320312 0.1875 -0.28125 C 0.195312 -0.238281 0.210938 -0.203125 0.234375 -0.171875 C 0.265625 -0.148438 0.296875 -0.128906 0.328125 -0.109375 C 0.367188 -0.0976562 0.414062 -0.09375 0.46875 -0.09375 C 0.507812 -0.09375 0.546875 -0.0976562 0.578125 -0.109375 C 0.617188 -0.128906 0.648438 -0.148438 0.671875 -0.171875 C 0.703125 -0.203125 0.722656 -0.238281 0.734375 -0.28125 C 0.742188 -0.320312 0.75 -0.363281 0.75 -0.40625 Z M 0.75 -0.40625 "/></g></g></g><g fill="#6d6e71" fill-opacity="1"><g transform="translate(110.034862, 32.716707)"><g><path d="M 0.328125 -0.421875 C 0.367188 -0.421875 0.398438 -0.425781 0.421875 -0.4375 C 0.441406 -0.445312 0.460938 -0.457031 0.484375 -0.46875 C 0.503906 -0.488281 0.515625 -0.503906 0.515625 -0.515625 C 0.523438 -0.535156 0.53125 -0.5625 0.53125 -0.59375 C 0.53125 -0.644531 0.515625 -0.679688 0.484375 -0.703125 C 0.453125 -0.722656 0.40625 -0.734375 0.34375 -0.734375 L 0.21875 -0.734375 L 0.21875 -0.421875 Z M 0.71875 0 L 0.625 0 C 0.601562 0 0.585938 -0.0078125 0.578125 -0.03125 L 0.359375 -0.3125 C 0.347656 -0.320312 0.335938 -0.328125 0.328125 -0.328125 C 0.328125 -0.335938 0.316406 -0.34375 0.296875 -0.34375 L 0.21875 -0.34375 L 0.21875 0 L 0.109375 0 L 0.109375 -0.828125 L 0.34375 -0.828125 C 0.394531 -0.828125 0.4375 -0.820312 0.46875 -0.8125 C 0.507812 -0.800781 0.539062 -0.785156 0.5625 -0.765625 C 0.59375 -0.742188 0.613281 -0.71875 0.625 -0.6875 C 0.632812 -0.664062 0.640625 -0.632812 0.640625 -0.59375 C 0.640625 -0.570312 0.632812 -0.546875 0.625 -0.515625 C 0.613281 -0.492188 0.597656 -0.472656 0.578125 -0.453125 C 0.566406 -0.429688 0.546875 -0.410156 0.515625 -0.390625 C 0.492188 -0.378906 0.46875 -0.367188 0.4375 -0.359375 C 0.445312 -0.359375 0.457031 -0.347656 0.46875 -0.328125 Z M 0.71875 0 "/></g></g></g><g fill="#6d6e71" fill-opacity="1"><g transform="translate(111.229289, 32.716707)"><g><path d="M 0.671875 -0.734375 L 0.390625 -0.734375 L 0.390625 0 L 0.28125 0 L 0.28125 -0.734375 L 0.015625 -0.734375 L 0.015625 -0.828125 L 0.671875 -0.828125 Z M 0.671875 -0.734375 "/></g></g></g><g fill="#6d6e71" fill-opacity="1"><g transform="translate(112.381827, 32.716707)"><g><path d="M 0.53125 -0.703125 C 0.53125 -0.691406 0.523438 -0.6875 0.515625 -0.6875 C 0.515625 -0.6875 0.507812 -0.6875 0.5 -0.6875 C 0.5 -0.6875 0.492188 -0.6875 0.484375 -0.6875 C 0.472656 -0.695312 0.457031 -0.703125 0.4375 -0.703125 C 0.425781 -0.710938 0.410156 -0.722656 0.390625 -0.734375 C 0.378906 -0.742188 0.359375 -0.75 0.328125 -0.75 C 0.304688 -0.75 0.285156 -0.742188 0.265625 -0.734375 C 0.242188 -0.722656 0.226562 -0.710938 0.21875 -0.703125 C 0.207031 -0.691406 0.195312 -0.675781 0.1875 -0.65625 C 0.175781 -0.644531 0.171875 -0.628906 0.171875 -0.609375 C 0.171875 -0.585938 0.175781 -0.566406 0.1875 -0.546875 C 0.207031 -0.535156 0.222656 -0.523438 0.234375 -0.515625 C 0.253906 -0.503906 0.273438 -0.492188 0.296875 -0.484375 C 0.328125 -0.484375 0.351562 -0.476562 0.375 -0.46875 C 0.394531 -0.457031 0.414062 -0.445312 0.4375 -0.4375 C 0.46875 -0.425781 0.492188 -0.410156 0.515625 -0.390625 C 0.535156 -0.378906 0.550781 -0.359375 0.5625 -0.328125 C 0.570312 -0.304688 0.578125 -0.28125 0.578125 -0.25 C 0.578125 -0.21875 0.566406 -0.1875 0.546875 -0.15625 C 0.535156 -0.125 0.519531 -0.09375 0.5 -0.0625 C 0.476562 -0.0390625 0.445312 -0.0195312 0.40625 0 C 0.375 0.0078125 0.335938 0.015625 0.296875 0.015625 C 0.242188 0.015625 0.191406 0.00390625 0.140625 -0.015625 C 0.0976562 -0.0351562 0.0625 -0.0625 0.03125 -0.09375 L 0.078125 -0.15625 C 0.0859375 -0.164062 0.09375 -0.171875 0.09375 -0.171875 C 0.101562 -0.171875 0.109375 -0.164062 0.109375 -0.15625 C 0.117188 -0.15625 0.125 -0.148438 0.125 -0.140625 C 0.132812 -0.140625 0.144531 -0.132812 0.15625 -0.125 C 0.164062 -0.113281 0.175781 -0.101562 0.1875 -0.09375 C 0.207031 -0.09375 0.222656 -0.0859375 0.234375 -0.078125 C 0.253906 -0.078125 0.273438 -0.078125 0.296875 -0.078125 C 0.328125 -0.078125 0.351562 -0.0820312 0.375 -0.09375 C 0.394531 -0.101562 0.410156 -0.113281 0.421875 -0.125 C 0.441406 -0.132812 0.453125 -0.148438 0.453125 -0.171875 C 0.460938 -0.191406 0.46875 -0.210938 0.46875 -0.234375 C 0.46875 -0.253906 0.460938 -0.273438 0.453125 -0.296875 C 0.441406 -0.316406 0.425781 -0.332031 0.40625 -0.34375 C 0.382812 -0.351562 0.363281 -0.359375 0.34375 -0.359375 C 0.320312 -0.367188 0.296875 -0.378906 0.265625 -0.390625 C 0.242188 -0.398438 0.21875 -0.410156 0.1875 -0.421875 C 0.164062 -0.429688 0.144531 -0.441406 0.125 -0.453125 C 0.113281 -0.472656 0.101562 -0.492188 0.09375 -0.515625 C 0.0820312 -0.546875 0.078125 -0.578125 0.078125 -0.609375 C 0.078125 -0.640625 0.0820312 -0.664062 0.09375 -0.6875 C 0.101562 -0.71875 0.117188 -0.742188 0.140625 -0.765625 C 0.160156 -0.785156 0.1875 -0.800781 0.21875 -0.8125 C 0.25 -0.832031 0.285156 -0.84375 0.328125 -0.84375 C 0.378906 -0.84375 0.421875 -0.832031 0.453125 -0.8125 C 0.492188 -0.800781 0.53125 -0.78125 0.5625 -0.75 Z M 0.53125 -0.703125 "/></g></g></g><path stroke-linecap="round" transform="matrix(0.753038, 0, 0, 0.748462, 79.661778, 29.522176)" fill="none" stroke-linejoin="miter" d="M 0.501017 0.497494 L 53.178283 0.497494 " stroke="#6d6e71" stroke-width="1" stroke-opacity="1" stroke-miterlimit="4"/><path stroke-linecap="round" transform="matrix(0.753038, 0, 0, 0.748462, 79.661778, 21.95886)" fill="none" stroke-linejoin="miter" d="M 0.501017 0.498584 L 53.178283 0.498584 " stroke="#6d6e71" stroke-width="1" stroke-opacity="1" stroke-miterlimit="4"/></svg>